PathFileType	4	(X/Y/Z)	C:/Users/beibeiliu/ov580/test_trc\sequence.4_training_dense_right.trc
DataRate	CameraRate	NumFrames	NumMarkers	Units	OrigDataRate	OrigDataStartFrame	OrigNumFrames
120	120	22	19	mm	120	1	258
Frame#	Time	ThumbCMC			ThumbMCP			ThumbIP			ThumbTip			IndexMCP			IndexPIP			IndexTip			MiddleMCP			MiddlePIP			MiddleTip			RingMCP			RingPIP			RingTip			PinkyMCP			PinkyPIP			PinkyTip			BackHand1			BackHand2			BackHand3	
		X0	Y0	Z0	X1	Y1	Z1	X2	Y2	Z2	X3	Y3	Z3	X4	Y4	Z4	X5	Y5	Z5	X6	Y6	Z6	X7	Y7	Z7	X8	Y8	Z8	X9	Y9	Z9	X10	Y10	Z10	X11	Y11	Z11	X12	Y12	Z12	X13	Y13	Z13	X14	Y14	Z14	X15	Y15	Z15	X16	Y16	Z16	X17	Y17	Z17	X18	Y18	Z18	
0	0	218.22	-28.9946	14.5813	235.246	-7.83637	-9.68166	222.832	8.22621	-28.2964	200.462	19.8545	-32.1021	211.582	-13.6208	-51.5237	217.29	7.44927	-69.3832	226.125	25.3017	-78.513	194.123	7.2814	-45.8716	207.901	33.1571	-36.5726	209.442	26.2337	-3.73806	184.395	16.2778	-30.8073	198.248	28.4	-10.6943	196.461	6.53312	8.76402	172.14	17.3986	-20.8474	186.975	26.065	-2.88768	188.464	5.09204	11.0762	170.449	-27.3405	-10.3094	170.968	-41.9249	15.7148	194.841	-43.533	0.85512	
1	0.00833333	221.963	-30.2628	9.36022	233.907	-9.85191	-6.03348	228.058	6.4953	-29.1308	216.976	22.998	-40.3719	212.635	-23.5711	-51.6647	220.134	-8.12309	-73.0519	223.759	12.3532	-86.3497	198.778	-3.69651	-46.6345	210.858	24.0292	-33.8679	209.279	11.5002	-4.59876	188.616	8.83993	-34.6991	195.099	24.4154	-16.2746	199.423	2.70435	5.43997	173.361	9.02317	-23.6506	188.755	20.9448	-7.13206	191.583	-1.55367	5.58188	172.274	-32.5017	-8.52314	172.931	-43.5997	18.3285	196.689	-48.4943	-0.123891	
2	0.0166667	225.138	-34.2113	14.6484	233.475	-12.9535	-9.07853	231.582	1.72456	-30.915	219.005	14.6526	-44.0577	212.573	-33.5448	-51.678	220.358	-23.994	-71.1146	222.283	-7.55819	-89.2316	201.239	-8.01292	-49.4818	212.662	15.1131	-36.6029	209.724	0.996051	-6.68274	186.794	1.26675	-36.1486	200.064	15.8569	-21.6774	200.522	-0.207076	2.7713	175.633	3.50975	-27.1945	188.975	16.0163	-12.4548	194.463	-1.09546	3.91167	172.471	-37.0685	-7.64789	171.232	-45.3739	18.48	195.627	-52.9465	4.20773	
3	0.025	227.488	-36.9724	11.8469	237.86	-17.379	-9.18803	231.496	-5.16506	-34.6601	220.448	8.95744	-49.4135	214.785	-44.0968	-49.0424	220.399	-33.9256	-74.9152	220.61	-21.7649	-92.9882	197.737	-16.7061	-49.7883	210.652	9.14817	-38.6323	208.992	-2.84985	-10.3128	190.14	-5.39014	-39.5906	202.969	11.28	-21.2968	203.443	-5.08732	0.314171	176.442	-3.47168	-28.6254	190.888	10.9882	-17.9325	195.321	-6.99952	4.5487	175.913	-43.828	-6.28625	175.197	-45.9548	23.6063	200.722	-56.4471	3.17059	
4	0.0333333	230.489	-39.9771	11.1809	237.877	-21.2559	-10.4491	233.741	-10.8555	-35.0267	219.703	1.66404	-51.3214	214.41	-50.6817	-50.9905	220.356	-45.9898	-71.5047	219.769	-34.252	-92.5194	202.336	-28.527	-48.5603	213.344	1.60387	-41.7568	213.764	-5.3951	-13.3512	189.611	-15.9404	-37.8502	206.168	4.3831	-24.4205	205.406	-8.80598	0.370289	175.074	-9.94198	-27.9474	194.766	6.10727	-17.0126	196.263	-10.2344	3.05565	177.828	-47.052	-1.26539	174.457	-49.0911	25.5886	198.358	-57.8231	9.64426	
5	0.0416667	231.966	-40.1569	11.5072	237.113	-23.2585	-10.0173	234.805	-14.2072	-30.6282	223.074	-4.43383	-49.8978	219.975	-56.2331	-47.2155	218.253	-51.0044	-71.6081	226.255	-45.5006	-94.6945	202.021	-33.1257	-47.9448	211.035	-3.2213	-46.5485	215.262	-6.76349	-15.8464	193.28	-19.3495	-39.7579	203.02	2.23289	-28.1351	208.217	-9.32076	-4.06174	177.353	-12.2723	-29.639	194.117	1.25736	-21.6021	197.583	-12.6632	5.26915	176.902	-48.8767	-2.05298	180.25	-51.4534	24.4333	201.885	-60.4385	8.01626	
6	0.05	232.439	-39.7254	14.13	242.96	-24.1474	-9.60407	239.241	-16.3367	-35.2275	226.812	-6.69566	-52.9062	221.782	-60.0552	-45.0436	225.601	-58.5579	-69.7551	222.355	-53.0427	-91.32	207.282	-38.2921	-48.0651	214.133	-8.50298	-47.6342	215.991	-9.61278	-15.5497	190.985	-22.968	-39.9646	202.487	-1.23473	-28.8962	206.691	-9.44519	-3.08232	179.126	-21.3028	-28.5645	192.779	-1.03087	-19.023	198.026	-15.8845	4.2754	183.386	-54.7512	2.51768	186.004	-53.974	28.5755	208.132	-62.2065	11.0165	
7	0.0583333	236.251	-37.2403	19.2407	243.218	-23.3242	-9.28053	239.137	-17.3883	-33.5619	225.941	-10.9006	-54.7031	227.104	-63.9618	-42.9852	225.001	-61.9441	-68.9074	225.997	-60.7899	-91.8364	207.95	-40.0138	-47.9002	213.872	-11.3384	-47.3099	213.502	-12.705	-12.9382	191.733	-26.8185	-39.4369	201.052	-4.02588	-28.9871	209.289	-11.5327	-4.73072	178.779	-27.9041	-28.4896	192.161	-6.70807	-24.7953	199.219	-14.8279	2.67098	187.589	-59.7477	0.19269	188.641	-56.5114	32.1362	214.58	-63.722	16.2205	
8	0.0666667	234.269	-35.537	15.7399	242.195	-19.7734	-8.55716	237.334	-16.4914	-30.9151	226.037	-11.3731	-53.2507	229.059	-64.374	-41.4346	229.616	-66.5612	-64.5269	227.318	-65.989	-84.3916	209.607	-44.694	-46.3422	211.922	-13.2392	-46.2336	213.914	-11.1266	-19.0175	194.883	-36.7054	-37.957	200.826	-10.3899	-33.7719	206.19	-13.5998	-3.53934	178.763	-32.8228	-29.9738	192.193	-12.0741	-25.6336	196.135	-15.5119	-1.35145	187.71	-62.4125	3.48754	189.072	-58.1942	30.5196	215.512	-61.6258	18.8454	
9	0.075	237.511	-29.603	21.063	239.909	-15.3488	-9.03016	236.726	-13.5552	-31.4652	223.254	-13.2261	-55.0249	231.756	-65.1295	-37.6717	235.865	-67.2888	-58.0825	231.919	-69.1055	-84.1279	216.133	-46.1808	-47.1352	211.423	-16.2338	-46.86	213.661	-12.556	-18.4253	195.895	-41.2755	-37.4023	200.032	-14.6184	-35.4006	205.627	-13.956	-6.88312	177.834	-39.1092	-29.8937	189.099	-16.5321	-28.019	199.97	-19.8664	-4.43607	197.383	-61.8396	7.71848	193.324	-58.9712	31.1232	218.39	-61.5439	22.2257	
10	0.0833333	235.406	-28.1898	19.5865	240.025	-13.32	-10.9945	236.034	-10.9988	-34.1701	220.486	-15.6413	-54.6717	239.177	-63.6428	-30.8491	240.612	-69.6364	-58.4464	234.55	-73.0498	-77.4914	217.025	-48.632	-44.156	209.113	-21.8722	-49.6	210.58	-15.8537	-17.8709	197.323	-43.0942	-38.7748	198.149	-17.5981	-35.4965	203.433	-15.2375	-7.45211	180.214	-44.9213	-28.6971	188.745	-21.9887	-29.0344	198.767	-22.9175	-2.05715	201.522	-63.3343	11.7958	198.365	-59.7098	37.5926	222.864	-56.9863	24.3493	
11	0.0916667	235.884	-22.2651	23.766	235.898	-14.0708	-6.83017	234.53	-13.861	-35.7586	220.757	-18.209	-56.6136	245.631	-63.4992	-30.238	244.669	-71.2647	-53.6917	243.706	-75.2353	-76.7072	224.008	-51.7898	-39.3005	212.265	-23.6998	-48.1967	213.879	-15.9491	-17.4017	202.016	-47.8118	-37.3354	198.103	-21.8892	-35.5042	204.222	-18.6818	-6.43455	189.583	-48.1508	-29.9594	190.045	-23.8898	-27.4271	195.974	-23.5696	-2.41978	204.368	-66.5834	9.30354	201.815	-58.9665	37.5908	230.296	-55.3483	23.0967	
12	0.1	238.289	-20.1865	23.9491	237.347	-12.7434	-6.63367	235.584	-12.3719	-29.8296	225.384	-18.7103	-52.3337	253.134	-64.83	-27.9259	252.71	-71.5022	-49.1999	256.922	-74.912	-67.9496	229.646	-51.5584	-41.537	213.888	-26.3545	-44.8329	213.183	-20.3237	-16.2763	208.316	-49.8025	-36.6312	199.893	-23.4478	-33.0486	206.876	-19.4095	-6.49081	192.056	-52.94	-29.7632	194.262	-28.8709	-28.404	200.226	-26.0129	-3.2908	210.895	-68.6549	13.3856	204.398	-59.0213	38.0125	232.59	-54.9487	29.9718	
13	0.108333	236.056	-22.5262	23.433	238.501	-10.6853	-6.44404	237.554	-13.8884	-29.2978	228.545	-17.9511	-50.531	256.169	-62.2275	-21.8233	261.719	-70.445	-43.8952	269.04	-77.125	-66.6099	232.34	-55.9462	-35.826	220.548	-29.9296	-46.2695	215.446	-22.4404	-12.634	211.994	-51.6993	-36.5104	209.967	-26.9419	-33.7699	206.053	-20.2327	-8.89316	196.655	-57.6728	-27.3042	196.44	-30.4643	-26.0431	202.589	-26.7813	-4.88709	214.368	-67.4539	16.9747	206.942	-60.6763	37.9623	235.429	-53.3435	32.5993	
14	0.116667	237.145	-18.4844	24.9005	239.833	-4.49438	-4.21484	239.844	-10.108	-28.1997	231.106	-20.9733	-53.1658	268.992	-58.5245	-19.072	274.246	-65.4212	-40.276	284.187	-69.6924	-56.7744	244.545	-50.2955	-33.1756	227.505	-30.509	-44.5993	219.546	-22.1378	-12.4209	220.325	-53.3974	-33.8722	211.32	-26.0432	-31.0446	210.283	-23.2752	-3.34819	206.757	-58.769	-26.3938	199.147	-34.5052	-28.7262	204.124	-29.2356	-0.138591	218.265	-69.445	16.0864	211.385	-59.981	40.7928	238.302	-51.1886	30.9845	
15	0.125	238.316	-14.4787	27.0661	238.981	-3.55595	-2.38533	242.055	-5.22516	-26.2874	236.441	-16.3602	-48.2862	277.978	-49.7922	-11.7908	288.99	-54.4828	-32.6806	300.175	-58.6267	-48.5524	252.462	-45.6845	-31.8192	235.529	-23.5526	-39.4256	223.761	-19.15	-12.6029	233.59	-48.7469	-31.487	215.666	-29.7041	-33.5421	210.19	-24.0792	-3.75553	216.307	-58.8322	-27.0142	206.474	-35.9815	-27.3097	207.232	-30.1892	-0.673707	225.114	-70.1426	18.3908	214.271	-64.0365	38.9667	239.333	-47.1525	36.3561	
16	0.133333	234.264	-13.5671	28.9787	239.323	0.997132	-1.74614	244.299	-5.53677	-26.2596	240.62	-15.5775	-48.0431	285.268	-39.9484	-6.12127	298.889	-41.3656	-23.2794	310.977	-47.9108	-42.7334	262.09	-41.0207	-25.0287	243.067	-22.0428	-38.7872	224.359	-22.1091	-13.0831	242.565	-48.6151	-25.8475	222.73	-26.7615	-29.4027	214.942	-24.0289	-2.07639	226.311	-59.8937	-24.8521	214.071	-34.9617	-23.9009	211.726	-32.1609	1.4673	234.155	-66.4119	21.1316	217.582	-62.6568	42.2495	240.686	-43.5146	38.8997	
17	0.141667	235.238	-8.32848	29.6136	238.524	0.280559	-2.15326	243.386	2.45495	-23.8011	244.731	-9.47173	-45.3016	289.075	-31.9439	-1.20419	304.084	-32.4422	-17.2868	317.543	-33.1614	-33.272	266.439	-35.0796	-24.903	244.252	-19.372	-35.9976	229.439	-17.0292	-9.46795	250.539	-41.7999	-25.8544	225.336	-26.5757	-27.9523	219.219	-23.2289	-3.78487	236.036	-53.0065	-24.7672	218.682	-34.9493	-22.4212	210.797	-33.1229	0.861505	241.4	-64.2853	22.3287	221.792	-61.2086	44.019	244.621	-36.9192	41.7866	
18	0.15	230.503	-3.91451	33.345	237.505	4.23157	-0.729838	242.513	6.53586	-22.3902	248.044	-6.36677	-46.4077	290.319	-19.6117	5.9681	305.74	-20.9685	-9.49576	323.674	-22.9958	-28.1877	273.021	-26.1998	-21.0821	251.765	-17.9711	-35.938	230.599	-20.4373	-8.64126	255.322	-43.7015	-22.8656	234.341	-25.772	-29.9433	221.684	-24.4249	-2.82349	243.602	-53.6395	-20.9717	223.984	-33.9493	-20.973	216.425	-34.3656	-0.21386	249.439	-56.9169	24.5444	227.46	-56.365	42.6528	246.251	-36.2984	42.9726	
19	0.158333	230.777	-3.53552	31.2547	236.802	3.49985	-0.137343	242.181	5.27908	-20.1188	249.82	-4.09767	-44.4608	288.481	-11.427	9.51208	308.046	-8.83273	-5.38056	324.286	-5.12454	-18.8475	275.405	-24.8151	-19.8164	253.145	-14.3249	-33.7919	233.376	-17.2247	-7.39922	260.339	-36.2076	-24.1717	237.934	-21.9514	-27.1165	225.549	-25.7599	-0.285015	250.788	-50.1477	-18.0865	229.957	-35.5476	-22.9303	223.242	-31.8161	4.38532	255.922	-52.7439	25.1256	234.513	-57.6299	42.0071	245.855	-33.8705	44.8457	
20	0.166667	229.568	-5.97612	29.6842	231.232	5.70632	2.09952	240.158	11.0799	-22.6492	250.996	-3.67349	-40.6024	289.467	-6.01742	10.359	306.853	4.28968	-0.948493	323.555	9.0569	-14.3626	278.798	-15.7742	-11.8635	258.161	-9.78157	-33.9099	234.914	-12.7444	-5.92948	265.542	-30.3394	-20.9981	239.878	-20.3355	-25.1734	227.055	-27.5186	-3.87221	255.352	-48.5752	-20.868	234.299	-37.0851	-23.7545	223.72	-36.1213	1.84874	256.362	-54.691	27.7958	236.472	-58.7848	44.3584	250.194	-25.5503	44.0627	
21	0.175	227.265	-3.04951	30.6565	231.908	5.18014	-0.319495	239.376	12.731	-22.7846	248.932	2.57112	-41.2315	289.827	6.02454	12.8968	302.228	15.1285	4.50642	322.926	24.1506	-11.0434	279.286	-8.4765	-12.0026	255.388	-1.54301	-29.5889	235.414	-12.0119	-6.58722	267.92	-26.2699	-20.8911	244.521	-19.851	-26.1006	229.182	-26.3531	-2.53432	259.916	-41.2171	-20.5827	238.501	-31.8262	-20.9466	228.452	-33.0325	2.70959	259.26	-45.1303	31.6263	239.104	-54.8113	44.4536	248.01	-27.5956	46.6597	
